<svg width="36" height="31" viewBox="0 0 36 31" fill="none" xmlns="http://www.w3.org/2000/svg">
<g clip-path="url(#clip0_2333_11187)">
<path d="M5.45313 21.372H6.01563V24.4306C6.01563 25.333 6.48438 25.9072 7.29297 25.9072C7.87891 25.9072 8.27735 25.6025 8.98047 24.9814L13.0351 21.372H20.5468C24.039 21.372 25.914 19.4502 25.914 16.0166V7.02831C25.914 3.59472 24.039 1.66113 20.5468 1.66113H5.45313C1.97266 1.66113 0.0859375 3.59472 0.0859375 7.02831V16.0166C0.0859375 19.4502 1.97266 21.372 5.45313 21.372Z" fill="black" fill-opacity="0.85"/>
<path d="M17.7227 25.8017H20.9219L24.3907 28.7549C25.3868 29.622 26.0548 30.0674 27.0977 30.0674C28.7618 30.0674 29.9571 28.8252 29.9571 27.0088V25.6845H29.9805C33.4024 25.1924 35.3477 22.7783 35.3477 19.0634V12.7236C35.3477 8.52832 32.8751 5.98535 28.5977 5.98535H17.7227C13.4337 5.98535 10.9727 8.52832 10.9727 12.7236V19.0634C10.9727 23.2588 13.4337 25.8017 17.7227 25.8017Z" fill="white"/>
<path d="M17.7226 24.1963H21.5078L25.4218 27.5478C26.1367 28.1572 26.5234 28.4736 27.0976 28.4736C27.9062 28.4736 28.3632 27.8994 28.3632 27.0088V24.1963H28.5976C31.9726 24.1963 33.7421 22.3799 33.7421 19.0634V12.7236C33.7421 9.3955 31.9726 7.5791 28.5976 7.5791H17.7226C14.3476 7.5791 12.5781 9.3955 12.5781 12.7236V19.0634C12.5781 22.3916 14.3476 24.1963 17.7226 24.1963Z" fill="black" fill-opacity="0.85"/>
</g>
<defs>
<clipPath id="clip0_2333_11187">
<rect width="35.2617" height="30.0352" fill="white" transform="translate(0.0859375 0.0322266)"/>
</clipPath>
</defs>
</svg>
