<svg width="29" height="29" viewBox="0 0 29 29" fill="none" xmlns="http://www.w3.org/2000/svg">
<g clip-path="url(#clip0_2333_4433)">
<path d="M2.09473 14.267C2.09473 18.7553 4.68457 22.7162 8.22364 24.6615C9.45411 25.3529 10.4736 23.7123 9.11426 22.9272C6.17285 21.2865 4.09864 18.0287 4.09864 14.267C4.09864 8.73572 8.50489 4.30603 14.0361 4.30603C19.5674 4.30603 24.0088 8.73572 24.0088 14.267C24.0088 14.9701 24.5478 15.31 25.0635 15.31C25.5439 15.31 26.0009 14.9584 26.0009 14.267C26.0009 7.72791 20.5752 2.31384 14.0361 2.31384C7.50879 2.31384 2.09473 7.72791 2.09473 14.267Z" fill="black" fill-opacity="0.85"/>
<path d="M6.8291 14.267C6.8291 16.8803 8.25878 19.0717 9.96972 20.1733C11.1533 20.9701 12.1728 19.3881 11.1768 18.7084C9.72363 17.7592 8.76269 16.1303 8.76269 14.267C8.76269 11.3138 11.1064 8.9701 14.0361 8.9701C16.9658 8.9701 19.2275 11.3021 19.333 14.267C19.3564 14.8061 19.7666 15.2279 20.3056 15.2279C20.8447 15.2279 21.2666 14.8061 21.2666 14.267C21.2666 10.306 17.997 7.0365 14.0361 7.0365C10.0986 7.0365 6.8291 10.306 6.8291 14.267Z" fill="black" fill-opacity="0.85"/>
<path d="M13.591 22.7514C13.5793 23.2084 14.1183 23.3608 14.4113 23.0678L16.2043 21.2748L18.2082 26.2201C18.3019 26.4428 18.5363 26.5483 18.7472 26.4662L19.9074 25.9975C20.1183 25.9037 20.2004 25.6576 20.0949 25.435L17.9972 20.56L20.5168 20.4662C20.9621 20.4428 21.173 20.0092 20.8566 19.6811L14.4582 13.0951C14.1535 12.7904 13.7082 12.9662 13.6965 13.3998L13.591 22.7514Z" fill="black" fill-opacity="0.85"/>
</g>
<defs>
<clipPath id="clip0_2333_4433">
<rect width="23.9062" height="24.4421" fill="white" transform="translate(2.09473 2.05176)"/>
</clipPath>
</defs>
</svg>
